<svg width="800" height="800" viewBox="0 0 800 800" fill="none" xmlns="http://www.w3.org/2000/svg">
<rect width="800" height="800" fill="#171717"/>
<path d="M350.162 2.32405C312.939 9.8224 279.939 36.0666 264.143 70.9027C254.133 92.7729 254.289 91.9918 253.664 176.036L253.038 252.894L176.09 253.519C91.9466 254.144 92.7286 253.987 70.8326 263.985C46.2779 275.077 25.1639 295.228 13.2776 318.973C1.70398 342.249 0.921986 346.467 0.139988 394.113C-0.485611 439.572 0.765586 451.913 8.42917 470.658C20.3155 500.339 46.1215 526.115 75.5246 537.987C95.231 545.798 106.492 546.735 182.971 546.735H253.038L253.664 623.75C254.133 691.547 254.602 701.701 256.948 709.981C270.555 755.596 305.119 787.932 350.632 797.305C367.523 800.898 432.898 800.898 449.945 797.305C498.899 787.307 536.434 749.035 544.88 700.608C546.6 690.61 547.226 675.613 547.226 644.37C547.226 596.1 546.131 599.849 560.989 599.849C572.25 600.005 582.729 603.754 595.554 612.034C612.445 623.125 620.421 625.468 641.066 625.468C658.113 625.624 659.677 625.312 669.531 620.625C693.616 609.222 706.597 586.102 706.754 554.39C706.754 529.239 697.37 506.276 677.82 484.249C665.933 470.815 660.772 463.785 641.848 434.416C619.326 399.424 598.369 387.239 560.52 387.239C519.856 387.239 499.368 400.361 472.154 444.258C464.803 455.974 452.291 473.158 444.471 482.375C422.263 507.838 414.286 526.896 414.286 554.234C414.286 589.226 429.77 614.064 457.609 623.125C474.657 628.749 498.117 626.874 514.382 618.595L520.638 615.47V650.619C520.638 691.547 518.761 703.576 510.003 721.697C498.429 745.442 472.467 765.437 446.348 770.905C431.021 774.029 369.243 774.029 354.072 770.905C337.025 767.312 321.698 759.032 308.717 746.067C296.674 734.038 289.949 723.572 284.318 707.638C280.721 697.64 280.721 695.765 279.939 617.032C278.844 527.677 279.47 532.52 268.209 524.397C263.361 520.96 262.891 520.96 182.815 520.023C103.989 519.241 102.113 519.241 92.103 515.649C59.4155 504.245 35.4863 477.688 28.7611 445.976C25.6331 430.667 25.6331 369.118 28.7611 353.809C32.3583 336.782 40.6475 321.473 53.6287 308.507C65.6715 296.478 76.1502 289.761 92.103 284.137C102.113 280.544 103.989 280.544 182.815 279.763C262.891 278.826 263.361 278.826 268.209 275.389C279.47 267.266 278.844 272.108 279.939 182.753C280.721 104.02 280.721 102.146 284.318 92.148C295.735 59.499 322.323 35.598 354.072 28.8807C369.4 25.7564 431.021 25.7564 446.348 28.8807C463.396 32.4737 478.723 40.7531 491.704 53.719C503.903 65.7476 510.472 76.3702 516.103 92.148C519.543 101.833 519.7 104.645 520.325 162.445L520.795 222.588L514.851 216.808C502.496 204.936 480.913 198.218 465.585 201.499C454.794 203.686 440.405 211.653 433.836 218.839C413.035 241.803 406.623 286.949 419.76 319.129C431.803 348.966 451.353 367.4 476.064 371.93C499.993 376.304 525.017 361.776 537.06 336.625C547.226 315.536 547.382 312.256 546.757 199.937C546.288 108.863 545.975 98.2404 543.472 89.8048C529.866 44.0336 495.145 11.697 449.945 2.48027C434.462 -0.800261 365.802 -0.800261 350.162 2.32405ZM489.202 231.18C495.614 234.304 503.903 242.896 509.221 251.488C519.856 268.984 523.141 299.29 516.259 317.723C509.065 337.407 499.211 345.842 483.884 345.842C473.249 345.842 464.803 340.999 456.983 330.845C443.846 313.662 438.528 296.634 439.779 275.701C441.187 253.675 449.476 237.272 463.083 230.555C472.467 225.712 479.036 225.869 489.202 231.18ZM589.767 418.951C601.966 424.575 610.412 433.792 625.582 457.849C639.502 480.031 647.322 490.654 657.644 501.433C673.441 517.992 681.573 539.862 679.54 560.951C678.445 573.136 676.881 578.135 671.407 585.946C666.09 593.756 656.706 598.443 645.132 599.38C632.307 600.474 621.203 597.193 607.44 588.289C590.862 577.51 579.288 574.073 560.52 574.073C542.534 574.073 531.43 577.041 518.605 585.164C502.652 595.475 494.05 598.755 482.007 599.536C471.998 600.161 469.652 599.693 461.988 596.1C451.822 590.944 446.817 585.008 443.377 573.448C436.495 549.704 443.377 523.772 462.145 502.683C474.969 488.467 482.789 478.001 495.458 457.693C510.003 434.729 516.103 427.387 524.705 422.388C536.591 415.358 543.316 413.952 562.866 414.421C578.506 414.733 581.947 415.358 589.767 418.951Z" fill="#A57FEE"/>
<path d="M633.245 201.968C620.577 205.717 613.852 209.779 602.591 220.87C560.989 262.111 565.837 343.187 611.193 366.151C635.591 378.648 660.459 373.18 681.104 350.998C697.213 333.502 705.815 312.725 707.848 286.637C709.725 261.643 700.184 232.586 685.326 217.746C671.407 203.999 649.511 197.282 633.245 201.968ZM652.482 228.212C659.833 230.243 669.999 239.147 674.066 247.114C677.976 254.613 681.729 270.703 681.729 279.607C681.729 290.074 677.663 307.257 672.814 317.099C666.871 329.284 653.108 342.875 644.35 345.218C630.43 348.811 616.041 341.781 609.003 328.034C600.401 311.163 598.368 292.417 602.747 273.515C608.691 248.833 626.989 228.369 644.975 226.65C645.914 226.65 649.198 227.275 652.482 228.212Z" fill="#A57FEE"/>
<path d="M105.397 308.35C92.5722 311.474 82.5626 317.098 73.1786 326.315C63.3254 336.313 56.913 348.185 54.4106 361.463C51.439 378.178 55.349 385.833 67.2354 385.833C74.117 385.833 79.591 380.209 79.591 373.336C79.591 365.525 84.1266 353.653 89.757 347.248C96.1693 339.749 105.866 334.907 117.283 333.345C127.449 331.939 132.767 327.408 132.767 319.91C132.61 307.881 123.383 303.976 105.397 308.35Z" fill="#A57FEE"/>
<path d="M167.019 308.506C162.483 311.006 158.886 318.817 160.45 323.034C160.919 324.44 162.796 327.252 164.516 329.127C167.331 332.251 169.208 332.72 180 332.72C190.948 332.72 192.825 332.251 196.109 328.814C201.114 323.972 201.114 317.098 196.265 311.318C192.981 307.569 191.261 306.944 181.877 306.632C174.369 306.319 169.834 306.788 167.019 308.506Z" fill="#A57FEE"/>
<path d="M741.788 339.593C698.465 350.529 673.754 410.359 697.84 446.289C707.537 460.817 725.053 468.628 741.319 465.503C766.969 460.661 787.144 442.383 795.746 416.608C811.23 370.212 782.452 329.283 741.788 339.593ZM764.31 368.181C766.343 369.431 769.471 373.648 771.191 377.71C781.514 400.986 759.305 439.415 735.376 439.415C722.082 439.415 715.357 430.511 715.513 413.171C715.669 395.519 723.802 379.116 735.845 371.618C748.513 363.807 756.333 362.87 764.31 368.181Z" fill="#A57FEE"/>
</svg>
